<svg width="1000" height="1000" viewBox="0 0 1000 1000" fill="none" xmlns="http://www.w3.org/2000/svg">
<rect width="1000" height="1000" fill="#121212"/>
<path fill-rule="evenodd" clip-rule="evenodd" d="M451.436 525.589C454.56 526.862 456.529 529.98 456.334 533.348L447.757 681.916C447.516 686.089 444.062 689.349 439.883 689.349H307.837C303.481 689.349 299.949 685.818 299.949 681.462V475.592C299.949 469.99 305.626 466.174 310.813 468.288L451.436 525.589ZM334.657 424.151C330.328 424.151 329.16 430.114 333.168 431.747L489.472 495.437C494.481 497.478 500.011 493.987 500.323 488.588L503.564 432.493C503.825 427.966 500.224 424.151 495.689 424.151H334.657ZM257.026 400.709C257.026 400.716 257.02 400.722 257.013 400.722V400.722C257.006 400.722 257 400.728 257 400.735V707.855C257 720.924 267.594 731.519 280.663 731.519H720.224C733.293 731.519 743.887 720.924 743.887 707.855V599.817C743.887 599.806 743.896 599.797 743.907 599.797V599.797C743.918 599.797 743.926 599.788 743.926 599.777V292.663C743.926 279.594 733.332 269 720.263 269H280.689C267.621 269 257.026 279.594 257.026 292.663V400.709ZM505.237 576.368C500.702 576.368 497.101 572.553 497.363 568.025L500.604 511.931C500.915 506.531 506.446 503.04 511.454 505.081L667.77 568.772C671.778 570.405 670.61 576.368 666.281 576.368H505.237ZM700.925 626.412C700.925 622.056 697.394 618.525 693.037 618.525H502.363C498.191 618.525 494.741 621.774 494.49 625.938L491.173 680.987C490.899 685.522 494.503 689.349 499.046 689.349H693.037C697.394 689.349 700.925 685.818 700.925 681.462V626.412ZM561.031 311.157C556.851 311.157 553.397 314.417 553.156 318.59L544.579 467.158C544.385 470.526 546.353 473.645 549.477 474.917L690.1 532.218C695.288 534.332 700.964 530.516 700.964 524.914V319.044C700.964 314.688 697.433 311.157 693.076 311.157H561.031ZM299.975 374.106C299.975 378.463 303.507 381.994 307.863 381.994H500.77C504.968 381.994 508.431 378.706 508.647 374.513L511.487 319.464C511.72 314.954 508.126 311.169 503.61 311.169H307.863C303.507 311.169 299.975 314.701 299.975 319.057V374.106Z" fill="white"/>
</svg>
