<svg width="765" height="261" viewBox="0 0 765 261" fill="none" xmlns="http://www.w3.org/2000/svg">
<path fill-rule="evenodd" clip-rule="evenodd" d="M73.8635 139.474C75.0503 139.958 75.7982 141.143 75.7243 142.422L72.466 198.861C72.3745 200.446 71.0624 201.685 69.4746 201.685H19.3122C17.6573 201.685 16.3158 200.343 16.3158 198.688V120.482C16.3158 118.353 18.4722 116.904 20.443 117.707L73.8635 139.474ZM29.5007 100.94C27.8565 100.94 27.4127 103.205 28.9353 103.825L88.3128 128.02C90.2156 128.796 92.3165 127.47 92.435 125.418L93.6661 104.109C93.7654 102.389 92.3974 100.94 90.6746 100.94H29.5007ZM0.00991539 92.0344C0.00991539 92.0371 0.00769575 92.0393 0.0049577 92.0393V92.0393C0.00221964 92.0393 0 92.0415 0 92.0443V208.715C0 213.68 4.02468 217.704 8.98938 217.704H175.972C180.937 217.704 184.962 213.68 184.962 208.715V167.673C184.962 167.669 184.965 167.665 184.969 167.665V167.665C184.973 167.665 184.977 167.662 184.977 167.658V50.9894C184.977 46.0247 180.952 42 175.987 42H8.99929C4.03459 42 0.00991539 46.0247 0.00991539 50.9894V92.0344ZM94.302 158.765C92.5791 158.765 91.2111 157.316 91.3105 155.596L92.5416 134.286C92.6601 132.235 94.7609 130.909 96.6637 131.684L156.046 155.879C157.568 156.5 157.125 158.765 155.48 158.765H94.302ZM168.641 177.776C168.641 176.121 167.299 174.78 165.645 174.78H93.2101C91.6251 174.78 90.3143 176.014 90.219 177.596L88.9589 198.508C88.8551 200.231 90.2242 201.685 91.95 201.685H165.645C167.299 201.685 168.641 200.343 168.641 198.688V177.776ZM115.497 58.0147C113.909 58.0147 112.597 59.2533 112.506 60.8385L109.247 117.278C109.173 118.557 109.921 119.742 111.108 120.225L164.529 141.993C166.499 142.796 168.656 141.346 168.656 139.218V61.0112C168.656 59.3563 167.314 58.0147 165.659 58.0147H115.497ZM16.3257 81.9284C16.3257 83.5833 17.6673 84.9249 19.3222 84.9249H92.6047C94.1996 84.9249 95.515 83.6756 95.5971 82.0828L96.6761 61.1704C96.7645 59.4572 95.3992 58.0196 93.6836 58.0196H19.3222C17.6673 58.0196 16.3257 59.3611 16.3257 61.016V81.9284Z" fill="#6486FF"/>
<path d="M252.39 204V66.2777H308.052C309.391 66.2777 311.049 66.3415 313.026 66.469C315.002 66.5328 316.883 66.7241 318.669 67.0429C326.32 68.2543 332.696 70.8685 337.797 74.8854C342.961 78.9023 346.819 83.9712 349.369 90.0922C351.919 96.2132 353.195 102.972 353.195 110.368C353.195 117.828 351.919 124.618 349.369 130.739C346.819 136.86 342.961 141.929 337.797 145.946C332.696 149.963 326.32 152.577 318.669 153.789C316.883 154.044 314.97 154.235 312.93 154.363C310.954 154.49 309.328 154.554 308.052 154.554H272.379V204H252.39ZM272.379 135.617H307.287C308.562 135.617 309.965 135.553 311.495 135.426C313.089 135.298 314.588 135.075 315.991 134.756C320.071 133.8 323.355 132.046 325.842 129.496C328.328 126.882 330.113 123.885 331.197 120.506C332.281 117.127 332.823 113.747 332.823 110.368C332.823 106.989 332.281 103.641 331.197 100.326C330.113 96.9464 328.328 93.9816 325.842 91.4312C323.355 88.817 320.071 87.0317 315.991 86.0753C314.588 85.6928 313.089 85.4377 311.495 85.3102C309.965 85.1827 308.562 85.1189 307.287 85.1189H272.379V135.617ZM411.08 206.869C400.814 206.869 391.792 204.638 384.013 200.174C376.298 195.647 370.273 189.367 365.937 181.333C361.665 173.236 359.529 163.863 359.529 153.215C359.529 141.929 361.633 132.142 365.842 123.853C370.114 115.564 376.043 109.157 383.631 104.63C391.218 100.103 400.049 97.8391 410.123 97.8391C420.644 97.8391 429.602 100.294 436.998 105.203C444.394 110.049 449.91 116.967 453.544 125.957C457.242 134.948 458.709 145.627 457.943 157.997H437.955V150.728C437.827 138.741 435.532 129.879 431.068 124.14C426.669 118.402 419.942 115.533 410.888 115.533C400.878 115.533 393.354 118.689 388.317 125.001C383.28 131.313 380.762 140.431 380.762 152.354C380.762 163.703 383.28 172.502 388.317 178.751C393.354 184.936 400.623 188.028 410.123 188.028C416.372 188.028 421.759 186.625 426.286 183.82C430.877 180.951 434.448 176.87 436.998 171.578L456.604 177.795C452.588 187.04 446.498 194.213 438.337 199.314C430.176 204.351 421.09 206.869 411.08 206.869ZM374.258 157.997V142.408H447.997V157.997H374.258ZM500.965 206.869C493.314 206.869 486.906 205.466 481.741 202.661C476.577 199.792 472.656 196.03 469.978 191.375C467.363 186.657 466.056 181.493 466.056 175.882C466.056 170.653 466.981 166.063 468.83 162.109C470.679 158.156 473.421 154.809 477.055 152.067C480.689 149.262 485.153 146.998 490.445 145.277C495.035 143.938 500.232 142.758 506.034 141.738C511.836 140.718 517.925 139.761 524.301 138.869C530.741 137.976 537.117 137.084 543.43 136.191L536.161 140.208C536.288 132.11 534.567 126.117 530.996 122.227C527.489 118.274 521.432 116.298 512.825 116.298C507.405 116.298 502.432 117.573 497.905 120.123C493.378 122.61 490.222 126.754 488.436 132.557L469.786 126.818C472.337 117.955 477.183 110.91 484.324 105.682C491.529 100.453 501.093 97.8391 513.016 97.8391C522.261 97.8391 530.295 99.4331 537.117 102.621C544.003 105.745 549.04 110.719 552.228 117.541C553.886 120.92 554.906 124.491 555.289 128.253C555.672 132.015 555.863 136.063 555.863 140.399V204H538.169V180.377L541.612 183.437C537.34 191.344 531.889 197.241 525.258 201.131C518.691 204.956 510.593 206.869 500.965 206.869ZM504.504 190.515C510.179 190.515 515.056 189.526 519.137 187.55C523.218 185.51 526.501 182.927 528.988 179.803C531.474 176.679 533.1 173.427 533.865 170.048C534.949 166.987 535.555 163.544 535.683 159.718C535.874 155.893 535.97 152.832 535.97 150.537L542.473 152.928C536.161 153.884 530.422 154.745 525.258 155.51C520.093 156.275 515.407 157.041 511.199 157.806C507.054 158.507 503.356 159.368 500.104 160.388C497.363 161.344 494.908 162.492 492.74 163.831C490.636 165.17 488.946 166.796 487.671 168.709C486.46 170.621 485.854 172.949 485.854 175.69C485.854 178.368 486.523 180.855 487.862 183.15C489.201 185.382 491.242 187.167 493.983 188.506C496.725 189.845 500.232 190.515 504.504 190.515ZM565.395 204V200.844L624.023 118.593H570.751V100.708H655.776V103.96L597.244 186.115H652.906V204H565.395ZM709.179 206.869C698.914 206.869 689.891 204.638 682.113 200.174C674.398 195.647 668.372 189.367 664.037 181.333C659.765 173.236 657.629 163.863 657.629 153.215C657.629 141.929 659.733 132.142 663.941 123.853C668.213 115.564 674.143 109.157 681.73 104.63C689.318 100.103 698.148 97.8391 708.223 97.8391C718.743 97.8391 727.701 100.294 735.097 105.203C742.494 110.049 748.009 116.967 751.643 125.957C755.341 134.948 756.808 145.627 756.043 157.997H736.054V150.728C735.926 138.741 733.631 129.879 729.168 124.14C724.768 118.402 718.042 115.533 708.988 115.533C698.977 115.533 691.454 118.689 686.416 125.001C681.379 131.313 678.861 140.431 678.861 152.354C678.861 163.703 681.379 172.502 686.416 178.751C691.454 184.936 698.722 188.028 708.223 188.028C714.471 188.028 719.859 186.625 724.386 183.82C728.976 180.951 732.547 176.87 735.097 171.578L754.704 177.795C750.687 187.04 744.598 194.213 736.436 199.314C728.275 204.351 719.189 206.869 709.179 206.869ZM672.357 157.997V142.408H746.096V157.997H672.357Z" fill="#6486FF"/>
</svg>
